<?xml version="1.0" encoding="utf-8"?>
<!-- Generator: Adobe Illustrator 16.0.0, SVG Export Plug-In . SVG Version: 6.00 Build 0)  -->
<!DOCTYPE svg PUBLIC "-//W3C//DTD SVG 1.1//EN" "http://www.w3.org/Graphics/SVG/1.1/DTD/svg11.dtd">
<svg version="1.1" id="Layer_1" xmlns="http://www.w3.org/2000/svg" xmlns:xlink="http://www.w3.org/1999/xlink" x="0px" y="0px"
	 width="612px" height="792px" viewBox="0 0 612 792" enable-background="new 0 0 612 792" xml:space="preserve">
<g transform="translate(0.000000,250.000000) scale(0.100000,-0.100000)">
	<g>
		<g>
			<path d="M3060.735-4592.177c-241.255,0-461.582,17.363-604.482,47.637c-429.277,92.891-799.092,247.52-1164.155,486.689
				c-238.848,158.398-653.042,573.76-821.069,823.261c-236.201,353.672-398.14,737.725-481.475,1141.738
				c-83.247,403.564-86.123,817.558-8.545,1230.478C103.206-216.845,425.247,365.157,912.346,820.816
				c486.777,455.366,1094.668,743.628,1757.954,833.623c78.892,11.03,189.121,16.88,318.457,16.88
				c244.741,0,507.847-20.381,670.298-51.924c613.847-117.28,1238.945-459.424,1671.914-915.186
				c359.063-381.27,620.078-844.175,755.068-1338.916c135.039-494.941,145.176-1026.289,29.307-1536.592
				c-136.201-602.813-440.635-1132.373-904.844-1573.877c-439.717-414.443-930.645-668.369-1545.195-799.346
				C3522.317-4574.813,3301.994-4592.177,3060.735-4592.177z M3053.347,1279.585c-474.424,0-938.242-128.003-1378.559-380.449
				C1188.201,622.774,737.703,102.876,526.819-425.512c-420.137-1039.526-190.42-2177.231,599.38-2969.438
				c516.089-519.629,1200.21-805.742,1926.445-805.742c1142.212,0,2147.622,686.641,2561.401,1749.297
				c133.828,338.066,178.936,594.268,178.936,1015.688c-2.441,298.193-12.012,387.3-64.014,595.283
				c-106.943,439.653-267.002,763.906-552.578,1119.663c-433.223,535.024-1112.715,902.759-1817.441,983.438
				C3256.819,1273.882,3153.879,1279.585,3053.347,1279.585z"/>
			<path fill="#FFFFFF" d="M2988.752,1596.319c226.709,0,490.703-18.452,656.006-50.547
				c603.662-115.337,1212.226-451.519,1631.836-893.218c714.082-758.252,996.279-1791.338,765.615-2807.251
				c-132.51-586.475-431.885-1106.699-883.398-1536.133c-426.982-402.441-910.391-652.734-1509.14-780.342
				c-144.785-30.674-366.855-46.006-588.936-46.006s-444.155,15.332-588.936,46.006
				c-419.609,90.801-782.783,242.939-1138.603,476.055c-233.115,154.6-638.008,561.943-799.961,802.422
				C69.446-2498.241-97.419-1685.995,54.719-876.22C297.659,407.164,1360.188,1400.992,2680.383,1580.123
				C2759.348,1591.163,2868.811,1596.319,2988.752,1596.319 M3052.644-4275.692c1099.936,0,2181.518,641.992,2631.294,1797.08
				c139.873,353.359,184.043,615.928,184.043,1042.905c-2.451,299.375-12.266,397.534-66.25,613.472
				c-110.43,453.975-277.295,787.7-566.855,1148.423c-449.053,554.58-1138.604,927.568-1867.402,1011.001
				c-105.596,11.592-210.293,17.397-314.121,17.397c-489.751,0-960.332-129.209-1415.869-390.386
				C1131.975,677.09,675.559,149.507,457.161-397.709C27.727-1460.244,265.754-2638.115,1073.088-3447.9
				C1632.532-4011.181,2346.286-4275.692,3052.644-4275.692 M2988.752,1746.319c-92.476,0-224.551-3.057-328.813-17.598
				c-340.049-46.162-668.872-144.473-977.392-292.207c-301.533-144.39-577.905-333.11-821.44-560.928
				C617.424,647.627,412.107,385.665,250.857,96.963C85.662-198.808-29.919-516.85-92.664-848.32
				c-79.429-422.764-76.465-846.513,8.76-1259.687c85.298-413.516,250.967-806.484,492.397-1167.998
				c0.112-0.156,0.215-0.322,0.327-0.479c175.405-260.459,592.207-678.33,841.47-843.642c0.234-0.156,0.469-0.303,0.703-0.459
				c373.003-244.375,750.845-402.363,1189.082-497.197c0.21-0.039,0.42-0.088,0.635-0.137
				c147.788-31.309,373.779-49.258,620.024-49.258c246.25,0,472.236,17.949,620.02,49.268
				c315.488,67.236,595.693,165.557,856.816,300.615c261.377,135.195,498.242,304.414,724.121,517.305
				c0.166,0.156,0.332,0.313,0.498,0.469c235.234,223.73,433.057,473.74,587.969,743.076
				c155.283,269.971,269.121,562.236,338.359,868.691c59.707,262.959,87.227,531.074,81.758,796.733
				c-5.4,262.651-43.047,523.755-111.885,776.055c-68.818,252.241-168.984,496.284-297.715,725.347
				c-130.146,231.592-289.922,448.604-474.883,645.01c-0.146,0.161-0.303,0.317-0.449,0.474
				c-443.369,466.714-1083.535,817.085-1712.431,937.241C3506.594,1725.401,3237.873,1746.319,2988.752,1746.319L2988.752,1746.319z
				 M3052.644-4125.692c-706.104,0-1371.328,278.252-1873.13,783.496C411.096-2571.445,187.673-1464.799,596.233-453.916
				c0.083,0.2,0.161,0.4,0.244,0.605C801.438,60.24,1239.133,565.45,1711.56,833.77c0.176,0.098,0.356,0.2,0.527,0.298
				c434.863,249.321,873.589,370.518,1341.26,370.518c97.681,0,197.72-5.537,297.358-16.455
				c685.351-78.53,1345.918-435.845,1767.226-955.879c278.125-346.489,434.023-662.29,538.047-1089.941
				c0.078-0.308,0.156-0.62,0.234-0.928c50.117-200.479,59.375-286.982,61.768-577.739c-0.049-415.439-42.236-655.4-173.516-987.051
				c-0.098-0.254-0.205-0.518-0.303-0.781C5141.682-3457.812,4163.703-4125.692,3052.644-4125.692L3052.644-4125.692z"/>
		</g>
		<g>
			<path d="M1343.01-2283.681c-289.17,0-406.987,46.23-572.349,224.785c-123.413,128.77-173.164,228.613-212.817,426.895
				c-80.635,403.154,142.363,835.483,497.109,963.73c74.243,25.767,188.223,40.957,305.811,40.957
				c87.944,0,167.998-8.677,225.41-24.438c357.212-100.894,597.876-488.247,560.337-901.167
				c-29.209-297.431-164.976-515.937-403.584-649.99c-0.337-0.186-0.674-0.371-1.016-0.557
				C1610.422-2274.687,1565.686-2283.681,1343.01-2283.681z M1341.306-1042.001c-86.685,0-167.52-22.534-221.777-61.831
				c-0.322-0.234-0.649-0.464-0.977-0.693c-141.86-99.302-190.181-403.354-94.014-591.518
				c62.856-124.883,176.987-196.27,313.34-196.27c150.283,0,324.165,93.447,373.872,302.207
				c44.077,182.602-16.333,394.697-137.49,483.535C1515.286-1065.527,1430.437-1042.001,1341.306-1042.001z"/>
			<path fill="#FFFFFF" d="M1360.764-702.314c77.319,0,152.007-7.065,205.557-21.763
				c321.455-90.796,539.853-444.155,505.498-822.056c-26.992-274.834-147.236-468.691-365.625-591.386
				c-117.793-63.799-149.688-71.162-363.184-71.162c-267.471,0-365.625,36.807-517.764,201.221
				c-115.332,120.234-157.051,206.123-193.857,390.166c-73.623,368.086,130.049,763.159,449.062,878.491
				C1149.241-714.936,1257.366-702.314,1360.764-702.314 M1337.878-1967.314c194.541,0,391.436,127.158,446.831,359.834
				c51.533,213.491-22.08,456.426-166.855,561.943c-74.497,52.148-175.996,78.535-276.548,78.535
				c-98.174-0.005-195.454-25.166-265.767-76.084c-171.768-120.239-230.664-466.23-117.783-687.09
				C1038.996-1891.581,1187.732-1967.314,1337.878-1967.314 M1360.764-552.314c-60.264,0-213.008-4.365-329.482-44.775
				c-0.61-0.215-1.221-0.43-1.826-0.649c-190.347-68.813-351.675-216.948-454.263-417.109
				c-100.781-196.636-133.061-421.04-90.889-631.87c42.363-211.826,98.735-324.678,231.758-463.604
				c180.679-194.951,315.693-248.359,626.948-248.359c222.144,0,284.009,7.695,434.619,89.268c0.684,0.371,1.362,0.742,2.036,1.123
				c261.221,146.758,409.741,384.795,441.435,707.5c0.034,0.361,0.068,0.713,0.103,1.074
				c19.512,214.663-30.557,431.631-140.981,610.938C1967.033-765,1799.006-633.93,1607.092-579.726
				c-0.352,0.103-0.708,0.2-1.064,0.298C1524.387-557.016,1427.59-552.314,1360.764-552.314L1360.764-552.314z M1337.878-1817.314
				c-106.982,0-196.694,56.338-246.138,154.57c-0.137,0.283-0.278,0.557-0.42,0.83c-38.833,75.986-51.382,183.545-33.564,287.729
				c16.245,94.98,56.021,174.766,103.804,208.213c0.654,0.459,1.309,0.928,1.958,1.396c41.133,29.785,107.598,47.568,177.793,47.573
				c72.671,0,143.291-18.892,189.321-50.586c84.229-62.49,149.39-234.326,108.267-404.697
				C1598.562-1741.689,1458.674-1817.314,1337.878-1817.314L1337.878-1817.314z"/>
		</g>
		<g>
			<path d="M4638.254-2297.206c-216.074,0-422.285,85.996-538.145,224.434c-191.406,226.445-261.328,539.922-186.816,838.261
				c65.625,262.754,233.096,465.244,459.473,555.557c85.498,34.663,161.807,48.232,271.787,48.232c19.326,0,39.912-0.4,62.959-1.226
				c343.076-10.806,560.449-162.441,645.762-450.708l34.199-109.917c7.09-22.764,2.92-47.544-11.211-66.743
				c-14.141-19.199-36.563-30.537-60.4-30.537h-144.785c-62.705,0-103.574,3.096-132.52,10.044
				c-83.242,19.976-89.707,81.06-89.707,99.307c-1.436,27.148-83.213,113.071-185.781,138.188
				c-35.791,8.452-71.377,12.813-105.166,12.813c-207.363,0-342.52-167.354-344.307-426.353
				c0-282.436,137.236-444.712,376.523-444.712c94.639,0,221.953,78.535,251.563,139.404c3.174,6.582,8.184,17.002,13.066,27.705
				c-33.35,1.895-79.971,1.895-114.941,1.895h-208.584c-41.426,0-75,33.574-75,75v245.395c0,41.421,33.574,75,75,75h689.541
				c20.137,0,39.434-8.101,53.535-22.476s21.836-33.823,21.455-53.955l-14.727-772.969c-0.781-40.859-34.121-73.574-74.99-73.574
				h-122.686c-83.34,0-152.822,0-186.113,65.41C4904.426-2260.771,4779.309-2297.206,4638.254-2297.206z"/>
			<path fill="#FFFFFF" d="M4644.553-705.722c18.779,0,38.789-0.41,60.283-1.177c311.65-9.819,500.596-139.873,576.67-397.534
				l34.355-110.42h-144.785c-110.42,0-147.227,9.814-147.227,34.351c0,76.069-122.695,181.587-242.939,211.035
				c-42.705,10.088-83.799,14.966-123.008,14.966c-246.895,0-417.188-193.774-419.307-500.835
				c0-321.46,169.326-520.229,451.523-520.229c117.783,0,274.834,90.801,319.004,181.592
				c63.799,132.51,56.436,137.412-169.316,137.412h-208.584v122.695v122.7h343.545h345.996l-7.363-385.259l-7.363-387.715h-122.686
				c-115.342,0-122.695,4.902-130.059,66.25l-7.363,68.711l-53.984-51.533c-85.469-82.295-216.758-121.494-353.682-121.494
				c-181.523,0-372.939,68.887-480.645,197.568c-348.447,412.256-218.389,1091.982,242.939,1276.02
				C4477.15-717.563,4543.254-705.722,4644.553-705.722 M4644.553-555.722c-120.342,0-204.492-15.073-299.98-53.73
				c-248.828-99.434-432.539-320.61-504.043-606.885c-37.861-151.611-41.064-312.891-9.248-466.416
				c33.769-162.939,106.904-314.531,211.504-438.398c129.775-154.873,357.9-251.055,595.479-251.055
				c129.521,0,247.773,28.232,344.619,81.074c7.822-5.762,16.455-11.162,25.977-16.094c48.486-25.098,98.262-26.914,174.492-26.914
				h122.686c81.729,0,148.418,65.43,149.971,147.148l7.363,387.715l7.363,385.244c0.732,38.408-13.291,75.557-39.063,103.853
				c1.719,2.085,3.379,4.219,4.99,6.401c28.262,38.403,36.592,87.954,22.422,133.486l-34.043,109.434
				c-47.891,161.45-134.834,286.484-258.418,371.646c-118.828,81.89-272.48,126.377-456.709,132.227
				C4686.086-556.137,4664.699-555.722,4644.553-555.722L4644.553-555.722z M4388.596-1455.888
				c0.859,113.667,29.287,206.689,82.217,269.048c46.377,54.634,109.326,82.339,187.09,82.339c27.793,0,57.354-3.633,87.881-10.796
				c58.008-14.404,113.398-59.072,128.984-82.285c2.197-20.693,8.457-42.681,19.746-63.584h-263.291c-82.842,0-150-67.158-150-150
				v-122.7v-122.695c0-82.842,67.158-150,150-150h135.371c-32.51-13.73-60.117-19.004-76.475-19.004
				c-94.502,0-167.861,29.473-218.057,87.598C4417.541-1674.823,4388.684-1577.285,4388.596-1455.888L4388.596-1455.888z"/>
		</g>
		<g>
			<path d="M2896.291-2273.866c-31.338,0-59.595,19.57-70.435,49.316l-223.735,613.77l-1.348-91.055l-4.897-495.322
				c-0.405-41.133-33.862-74.258-74.995-74.258H2275.49c-41.421,0-75,33.574-75,75v1472.339c0,41.421,33.579,75,75,75h157.051
				c188.408,0,223.047-40.43,236.084-55.654c1.431-1.665,2.788-3.398,4.067-5.186c28.652-40.103,175.576-446.807,213.354-553.53
				c51.812-146.377,96.582-268.457,129.756-356.308c35.024,88.183,82.148,212.602,136.27,363.901l196.377,544.937
				c10.713,29.741,38.936,49.57,70.557,49.57h341.084c41.123,0,74.58-33.12,75-74.243l7.363-731.265l4.912-731.504
				c0.137-20.732-8.31-40.596-23.33-54.873c-13.984-13.281-32.49-20.635-51.67-20.635c-1.436,0-2.871,0.039-4.316,0.127
				l-127.607,7.363l-129.98,7.354c-39.277,2.227-70.166,34.424-70.752,73.76l-8.623,575.205l-218.926-599.795
				c-10.234-28.057-36.143-47.363-65.957-49.15l-245.391-14.727C2899.304-2273.827,2897.79-2273.866,2896.291-2273.866z"/>
			<path fill="#FFFFFF" d="M2432.541-724.077c95.703,0,164.414-12.271,179.131-29.448
				c12.275-17.178,105.518-257.656,203.672-534.946s186.494-510.415,196.309-520.229c0.181-0.303,0.415-0.449,0.708-0.449
				c11.406,0,105.034,233.691,210.327,528.037l196.318,544.766h171.768h169.316l7.363-731.26l4.912-731.26l-127.607,7.363
				l-130.059,7.363l-7.354,490.781l-7.363,490.771l-179.141-490.771l-179.131-490.781l-122.695-7.363l-122.695-7.363
				l-181.582,498.145l-181.592,498.135l-7.363-498.135l-4.902-495.693h-122.695H2275.49v736.172v736.167H2432.541 M2432.541-574.077
				H2275.49c-82.842,0-150-67.158-150-150v-736.167v-736.172c0-82.842,67.158-150,150-150h122.695h122.695
				c82.266,0,149.18,66.26,149.995,148.516l1.729,174.785l82.788-227.119c21.68-59.482,78.198-98.633,140.869-98.633
				c3.003,0,6.016,0.088,9.043,0.273L3028-2341.23l122.695,7.363c59.629,3.574,111.445,42.188,131.924,98.301l79.57,217.998
				l2.529-168.818c1.172-78.672,62.949-143.066,141.504-147.51l130.059-7.363l127.441-7.354c2.891-0.176,5.771-0.254,8.652-0.254
				c38.34,0,75.371,14.697,103.32,41.27c30.049,28.555,46.943,68.281,46.67,109.736l-4.912,731.26c0,0.166-0.01,0.342-0.01,0.508
				l-7.363,731.255c-0.83,82.251-67.734,148.491-149.99,148.491h-169.316h-171.768c-63.232,0-119.678-39.658-141.113-99.146
				l-196.318-544.766c-22.798-63.73-44.448-122.915-64.463-176.606c-18.745,51.641-39.004,108.096-60.366,168.447
				c-45.591,128.799-93.662,259.702-135.361,368.599c-66.67,174.116-76.401,187.734-87.671,203.506
				c-2.559,3.579-5.269,7.041-8.13,10.381C2690.906-615.458,2628.972-574.077,2432.541-574.077L2432.541-574.077z"/>
		</g>
	</g>
</g>
</svg>
