<?xml version="1.0" encoding="utf-8"?>
<!-- Generator: Adobe Illustrator 16.0.0, SVG Export Plug-In . SVG Version: 6.00 Build 0)  -->
<!DOCTYPE svg PUBLIC "-//W3C//DTD SVG 1.1//EN" "http://www.w3.org/Graphics/SVG/1.1/DTD/svg11.dtd">
<svg version="1.1" id="Layer_1" xmlns="http://www.w3.org/2000/svg" xmlns:xlink="http://www.w3.org/1999/xlink" x="0px" y="0px"
	 width="612px" height="792px" viewBox="0 0 612 792" enable-background="new 0 0 612 792" xml:space="preserve">
<g transform="translate(0.000000,250.000000) scale(0.100000,-0.100000)">
	<g>
		<path d="M2680.383,1580.123C1360.188,1400.992,297.659,407.164,54.719-876.22c-152.139-809.775,14.727-1622.021,478.516-2316.474
			c161.953-240.479,566.846-647.822,799.961-802.422c355.82-233.115,718.994-385.254,1138.603-476.055
			c289.561-61.348,888.311-61.348,1177.871,0c598.75,127.607,1082.158,377.9,1509.14,780.342
			c451.514,429.433,750.889,949.658,883.398,1536.133c230.664,1015.913-51.533,2048.999-765.615,2807.251
			c-419.609,441.699-1028.174,777.881-1631.836,893.218C3392.004,1594.849,2908.596,1612.022,2680.383,1580.123z M3367.473,1337.188
			c728.799-83.433,1418.349-456.421,1867.402-1011.001c289.561-360.723,456.426-694.448,566.855-1148.423
			c53.984-215.938,63.799-314.097,66.25-613.472c0-426.977-44.17-689.546-184.043-1042.905
			C4945.324-4375.468,2503.703-4888.329,1073.088-3447.9C265.754-2638.115,27.727-1460.244,457.161-397.709
			C675.559,149.507,1131.975,677.09,1637.483,964.2C2189.602,1280.748,2763.811,1403.443,3367.473,1337.188z"/>
		<path d="M1080.452-738.803c-319.014-115.332-522.685-510.405-449.062-878.491c36.807-184.043,78.525-269.932,193.857-390.166
			c152.139-164.414,250.293-201.221,517.764-201.221c213.496,0,245.391,7.363,363.184,71.162
			c218.389,122.695,338.633,316.553,365.625,591.386c34.355,377.9-184.043,731.26-505.498,822.056
			C1441.164-689.721,1200.686-697.084,1080.452-738.803z M1617.854-1045.537c144.775-105.518,218.389-348.452,166.855-561.943
			c-98.154-412.256-640.459-493.232-826.953-122.695c-112.881,220.859-53.984,566.85,117.783,687.09
			C1217.864-940.019,1470.618-942.475,1617.854-1045.537z"/>
		<path d="M4400.559-748.618c-461.328-184.038-591.386-863.764-242.939-1276.02c188.955-225.762,635.557-267.471,834.326-76.074
			l53.984,51.533l7.363-68.711c7.363-61.348,14.717-66.25,130.059-66.25h122.686l7.363,387.715l7.363,385.259h-345.996h-343.545
			v-122.7v-122.695h208.584c225.752,0,233.115-4.902,169.316-137.412c-44.17-90.791-201.221-181.592-319.004-181.592
			c-282.197,0-451.523,198.77-451.523,520.229c2.461,355.815,230.674,559.487,542.314,485.869
			c120.244-29.448,242.939-134.966,242.939-211.035c0-24.536,36.807-34.351,147.227-34.351h144.785l-34.355,110.42
			c-76.074,257.661-265.02,387.715-576.67,397.534C4567.424-701.992,4491.35-711.806,4400.559-748.618z"/>
		<path d="M2275.49-1460.244v-736.172h122.695h122.695l4.902,495.693l7.363,498.135l181.592-498.135l181.582-498.145l122.695,7.363
			l122.695,7.363l179.131,490.781l179.141,490.771l7.363-490.771l7.354-490.781l130.059-7.363l127.607-7.363l-4.912,731.26
			l-7.363,731.26h-169.316h-171.768l-196.318-544.766c-107.969-301.826-203.672-539.853-211.035-527.588
			c-9.814,9.814-98.154,242.939-196.309,520.229s-191.396,517.769-203.672,534.946c-14.717,17.178-83.428,29.448-179.131,29.448
			H2275.49V-1460.244L2275.49-1460.244z"/>
	</g>
	<g>
		<path fill="none" stroke="#FFFFFF" stroke-width="5" d="M2680.383,1580.123C1360.188,1400.992,297.659,407.164,54.719-876.22
			c-152.139-809.775,14.727-1622.021,478.516-2316.474c161.953-240.479,566.846-647.822,799.961-802.422
			c355.82-233.115,718.994-385.254,1138.603-476.055c289.561-61.348,888.311-61.348,1177.871,0
			c598.75,127.607,1082.158,377.9,1509.14,780.342c451.514,429.433,750.889,949.658,883.398,1536.133
			c230.664,1015.913-51.533,2048.999-765.615,2807.251c-419.609,441.699-1028.174,777.881-1631.836,893.218
			C3392.004,1594.849,2908.596,1612.022,2680.383,1580.123z M3367.473,1337.188c728.799-83.433,1418.349-456.421,1867.402-1011.001
			c289.561-360.723,456.426-694.448,566.855-1148.423c53.984-215.938,63.799-314.097,66.25-613.472
			c0-426.977-44.17-689.546-184.043-1042.905C4945.324-4375.468,2503.703-4888.329,1073.088-3447.9
			C265.754-2638.115,27.727-1460.244,457.161-397.709C675.559,149.507,1131.975,677.09,1637.483,964.2
			C2189.602,1280.748,2763.811,1403.443,3367.473,1337.188z"/>
		<path fill="none" stroke="#FFFFFF" stroke-width="5" d="M1080.452-738.803c-319.014-115.332-522.685-510.405-449.062-878.491
			c36.807-184.043,78.525-269.932,193.857-390.166c152.139-164.414,250.293-201.221,517.764-201.221
			c213.496,0,245.391,7.363,363.184,71.162c218.389,122.695,338.633,316.553,365.625,591.386
			c34.355,377.9-184.043,731.26-505.498,822.056C1441.164-689.721,1200.686-697.084,1080.452-738.803z M1617.854-1045.537
			c144.775-105.518,218.389-348.452,166.855-561.943c-98.154-412.256-640.459-493.232-826.953-122.695
			c-112.881,220.859-53.984,566.85,117.783,687.09C1217.864-940.019,1470.618-942.475,1617.854-1045.537z"/>
		<path fill="none" stroke="#FFFFFF" stroke-width="5" d="M4400.559-748.618c-461.328-184.038-591.386-863.764-242.939-1276.02
			c188.955-225.762,635.557-267.471,834.326-76.074l53.984,51.533l7.363-68.711c7.363-61.348,14.717-66.25,130.059-66.25h122.686
			l7.363,387.715l7.363,385.259h-345.996h-343.545v-122.7v-122.695h208.584c225.752,0,233.115-4.902,169.316-137.412
			c-44.17-90.791-201.221-181.592-319.004-181.592c-282.197,0-451.523,198.77-451.523,520.229
			c2.461,355.815,230.674,559.487,542.314,485.869c120.244-29.448,242.939-134.966,242.939-211.035
			c0-24.536,36.807-34.351,147.227-34.351h144.785l-34.355,110.42c-76.074,257.661-265.02,387.715-576.67,397.534
			C4567.424-701.992,4491.35-711.806,4400.559-748.618z"/>
		<path fill="none" stroke="#FFFFFF" stroke-width="5" d="M2275.49-1460.244v-736.172h122.695h122.695l4.902,495.693l7.363,498.135
			l181.592-498.135l181.582-498.145l122.695,7.363l122.695,7.363l179.131,490.781l179.141,490.771l7.363-490.771l7.354-490.781
			l130.059-7.363l127.607-7.363l-4.912,731.26l-7.363,731.26h-169.316h-171.768l-196.318-544.766
			c-107.969-301.826-203.672-539.853-211.035-527.588c-9.814,9.814-98.154,242.939-196.309,520.229
			s-191.396,517.769-203.672,534.946c-14.717,17.178-83.428,29.448-179.131,29.448H2275.49V-1460.244L2275.49-1460.244z"/>
	</g>
</g>
</svg>
