<?xml version="1.0" encoding="utf-8"?>
<!-- Generator: Adobe Illustrator 16.0.0, SVG Export Plug-In . SVG Version: 6.00 Build 0)  -->
<!DOCTYPE svg PUBLIC "-//W3C//DTD SVG 1.1//EN" "http://www.w3.org/Graphics/SVG/1.1/DTD/svg11.dtd">
<svg version="1.1" id="Layer_1" xmlns="http://www.w3.org/2000/svg" xmlns:xlink="http://www.w3.org/1999/xlink" x="0px" y="0px"
	 width="612px" height="792px" viewBox="0 0 612 792" enable-background="new 0 0 612 792" xml:space="preserve">
<path fill="#FFFFFF" d="M272.142,124.955C154.466,140.922,59.757,229.507,38.102,343.903c-13.561,72.179,1.313,144.58,42.653,206.48
	c14.436,21.436,50.526,57.744,71.305,71.525c31.716,20.779,64.088,34.34,101.49,42.434c25.811,5.467,79.181,5.467,104.99,0
	c53.37-11.375,96.459-33.686,134.519-69.557c40.246-38.277,66.931-84.648,78.742-136.924c20.561-90.555-4.594-182.64-68.243-250.227
	c-37.402-39.371-91.647-69.337-145.455-79.618C335.573,123.642,292.485,122.111,272.142,124.955z"/>
<g transform="translate(0.000000,250.000000) scale(0.100000,-0.100000)">
	<g>
		<path d="M3060.456-4284.423c-217.251,0-416.147,15.732-545.679,43.174c-386.895,83.73-720.083,223.037-1048.979,438.525
			c-215.771,143.086-589.595,517.92-741.196,743.027c-212.993,318.926-358.984,665.195-434.136,1029.512
			c-75.078,363.965-77.676,737.3-7.729,1109.614C392.986-338.168,683.474,186.846,1122.825,597.842
			c438.94,410.615,987.08,670.547,1585.151,751.694c90.679,12.676,206.885,15.352,288.34,15.352
			c220.083,0,457.075-18.408,603.774-46.89c553.613-105.776,1117.461-414.385,1507.988-825.469
			c323.857-343.896,559.229-761.353,680.977-1207.559c121.797-446.396,130.947-925.576,26.475-1385.722
			c-122.871-543.799-397.432-1021.445-816.025-1419.56c-396.67-373.877-839.287-602.852-1393.261-720.908
			C3476.594-4268.69,3277.707-4284.423,3060.456-4284.423z M3053.874,949.415c-417.026,0-824.907-112.617-1212.309-334.727
			C1413.87,371.773,1017.971-85.151,832.615-549.575c-369.482-914.204-167.5-1914.575,526.953-2611.137
			c453.794-456.904,1055.239-708.467,1693.672-708.467c1004.35,0,1888.403,603.76,2252.241,1538.135
			c119.072,300.811,157.227,517.754,157.227,893.31c-2.139,262.168-10.527,340.43-56.064,522.563
			c-94.141,387.002-234.961,672.285-486.24,985.317c-380.732,470.195-978.174,793.462-1597.91,864.409
			C3232.815,944.4,3142.278,949.415,3053.874,949.415z"/>
		<path fill="#FFFFFF" d="M2996.316,1264.883c202.075,0,437.368-16.445,584.712-45.054
			c538.076-102.808,1080.527-402.466,1454.551-796.177c636.494-675.874,888.037-1596.719,682.432-2502.265
			c-118.115-522.754-384.961-986.465-787.422-1369.238c-380.596-358.72-811.484-581.826-1345.185-695.566
			c-129.053-27.344-327.002-41.006-524.946-41.006c-197.954,0-395.903,13.662-524.956,41.006
			c-374.019,80.938-697.739,216.543-1014.902,424.336c-207.788,137.803-568.691,500.888-713.052,715.244
			C394.148-2384.833,245.413-1660.829,381.018-939.033c216.548,1143.955,1163.642,2029.81,2340.405,2189.478
			C2791.809,1260.284,2889.402,1264.883,2996.316,1264.883 M3053.24-3969.179c980.434,0,1944.516,572.246,2345.425,1601.845
			c124.678,314.971,164.043,549.014,164.043,929.599c-2.178,266.846-10.928,354.346-59.053,546.821
			c-98.428,404.653-247.168,702.124-505.264,1023.657c-400.273,494.326-1014.902,826.792-1664.521,901.162
			c-94.121,10.332-187.441,15.508-280,15.508c-436.543,0-855.996-115.176-1262.041-347.974
			C1341.238,445.523,934.412-24.741,739.739-512.509c-382.778-947.1-170.61-1997.002,549.014-2718.808
			C1787.414-3733.407,2423.625-3969.179,3053.24-3969.179 M2996.316,1464.883c-84.541,0-205.571-2.832-302.29-16.323
			c-309.849-42.095-609.512-131.699-890.664-266.328c-274.883-131.626-526.831-303.672-748.853-511.362
			C832.292,462.989,645.041,224.073,497.971-39.248C347.234-309.13,241.77-599.35,184.509-901.835
			c-72.417-385.439-69.697-771.777,8.018-1148.554c77.769-376.992,228.73-735.156,448.701-1064.521
			c0.142-0.215,0.288-0.43,0.43-0.645c160.063-237.676,540.674-619.179,768.403-770.205c0.308-0.205,0.62-0.41,0.933-0.615
			c339.487-222.422,683.369-366.211,1082.207-452.52c0.283-0.059,0.566-0.117,0.85-0.176
			c136.05-28.828,342.495-45.352,566.406-45.352s430.356,16.523,566.401,45.352c287.148,61.191,542.363,150.781,780.439,273.926
			c238.535,123.389,454.58,277.695,660.469,471.758c0.215,0.205,0.439,0.41,0.654,0.615
			c214.307,203.828,394.6,431.709,535.879,677.334c141.719,246.387,245.605,513.105,308.789,792.744
			c54.404,239.59,79.482,483.965,74.492,726.157c-4.922,239.551-39.258,477.695-102.051,707.827
			c-62.773,230.078-154.131,452.661-271.533,661.572c-118.643,211.123-264.258,408.921-432.822,587.91
			c-0.195,0.21-0.391,0.42-0.596,0.63c-404.277,425.552-987.92,745.059-1561.445,854.766
			C3466.701,1445.762,3222.219,1464.883,2996.316,1464.883L2996.316,1464.883z M3053.24-3769.179
			c-611.597,0-1187.837,241.074-1622.583,678.799C764.714-2422.421,571.121-1463.457,925.168-587.451
			c0.107,0.269,0.215,0.537,0.322,0.806c177.461,444.644,556.289,881.982,965.112,1114.18c0.234,0.132,0.469,0.264,0.703,0.4
			c377.309,216.323,757.588,321.479,1162.563,321.479c84.629,0,171.318-4.8,257.695-14.263
			c593.994-68.12,1166.328-377.612,1531.142-827.954c241.211-300.581,376.396-574.492,466.611-945.381
			c0.107-0.415,0.205-0.83,0.313-1.24c43.506-174.033,50.977-244.175,53.076-499.17c-0.059-360.595-36.543-568.486-150.01-855.127
			c-0.127-0.352-0.264-0.693-0.4-1.045C4863.527-3190.439,4016.047-3769.179,3053.24-3769.179L3053.24-3769.179z"/>
	</g>
	<path d="M1295.315-816.542c-284.355-102.803-465.898-454.951-400.278-783.047c32.813-164.053,69.995-240.605,172.798-347.783
		c135.61-146.553,223.101-179.355,461.514-179.355c190.303,0,218.73,6.563,323.726,63.428
		c194.663,109.365,301.841,282.158,325.903,527.138c30.62,336.846-164.048,651.812-450.581,732.744
		C1616.838-772.792,1402.488-779.355,1295.315-816.542z M1774.333-1089.951c129.043-94.053,194.658-310.596,148.726-500.898
		c-87.49-367.461-570.879-439.639-737.109-109.365c-100.62,196.865-48.12,505.273,104.985,612.446
		C1417.795-995.898,1643.093-998.09,1774.333-1089.951z"/>
	<path d="M4254.719-825.292c-411.211-164.043-527.138-769.922-216.553-1137.392c168.428-201.23,566.514-238.408,743.682-67.803
		l48.125,45.928l6.563-61.24c6.563-54.688,13.115-59.053,115.928-59.053h109.355l6.563,345.586l6.563,343.408h-308.408h-306.221
		v-109.375v-109.365h185.928c201.221,0,207.783-4.365,150.918-122.48c-39.365-80.928-179.355-161.865-284.346-161.865
		c-251.533,0-402.471,177.178-402.471,463.711c2.197,317.158,205.615,498.706,483.398,433.086
		c107.178-26.25,216.543-120.303,216.543-188.105c0-21.875,32.813-30.625,131.24-30.625h129.053l-30.625,98.428
		c-67.813,229.668-236.23,345.591-514.023,354.346C4403.449-783.73,4335.646-792.48,4254.719-825.292z"/>
	<path d="M2360.52-1459.609V-2115.8h109.365h109.365l4.37,441.846l6.563,444.013l161.86-444.013l161.855-444.023l109.365,6.563
		l109.365,6.563l159.668,437.461l159.678,437.451l6.572-437.451l6.553-437.461l115.928-6.563l113.74-6.563l-4.375,651.806
		l-6.563,651.816h-150.928h-153.105l-174.99-485.576c-96.23-269.043-181.543-481.211-188.105-470.273
		c-8.75,8.75-87.49,216.543-174.98,463.711c-87.49,247.163-170.601,461.514-181.543,476.826
		c-13.12,15.313-74.365,26.25-159.668,26.25h-139.99V-1459.609L2360.52-1459.609z"/>
</g>
</svg>
