<?xml version="1.0" encoding="utf-8"?>
<!-- Generator: Adobe Illustrator 16.0.0, SVG Export Plug-In . SVG Version: 6.00 Build 0)  -->
<!DOCTYPE svg PUBLIC "-//W3C//DTD SVG 1.1//EN" "http://www.w3.org/Graphics/SVG/1.1/DTD/svg11.dtd">
<svg version="1.1" id="Layer_1" xmlns="http://www.w3.org/2000/svg" xmlns:xlink="http://www.w3.org/1999/xlink" x="0px" y="0px"
	 width="612px" height="792px" viewBox="0 0 612 792" enable-background="new 0 0 612 792" xml:space="preserve">
<g transform="translate(0.000000,250.000000) scale(0.100000,-0.100000)">
	<g>
		<path d="M3060.735-4567.177c-239.59,0-458.027,17.158-599.302,47.09c-426.079,92.207-793.223,245.713-1155.64,483.145
			c-236.67,156.963-647.373,568.857-814.028,816.318C257.415-2869.726,96.716-2488.642,14.036-2087.802
			c-82.588,400.361-85.435,811.103-8.457,1220.815C126.775-226.748,446.228,350.552,929.421,802.559
			c482.974,451.802,1086.118,737.813,1744.238,827.109c77.866,10.884,186.895,16.65,315.098,16.65
			c243.276,0,504.517-20.2,665.532-51.465c608.974-116.353,1229.052-455.752,1658.554-907.861
			C5669.035,308.775,5928-150.483,6061.916-641.289c133.965-490.996,144.014-1018.154,29.053-1524.482
			c-135.098-597.93-437.139-1123.242-897.705-1561.289c-436.162-411.094-923.281-663.027-1533.174-793.018
			C3518.762-4550.019,3300.324-4567.177,3060.735-4567.177z M3053.347,1304.585c-478.848,0-946.846-129.116-1390.996-383.76
			c-498.682-283.232-942.617-795.527-1158.75-1337.07C79.685-1465.126,311.497-2613.183,1108.498-3412.597
			c520.781-524.355,1211.201-813.095,1944.141-813.095c1152.597,0,2167.158,692.891,2584.707,1765.224
			c135.078,341.25,180.635,599.775,180.635,1024.76c-2.441,297.622-12.725,393.228-64.756,601.343
			c-107.842,443.34-269.297,770.415-557.344,1129.253c-437.314,540.083-1123.008,911.221-1834.092,992.622
			C3258.645,1298.833,3154.787,1304.585,3053.347,1304.585z"/>
		<path fill="#FFFFFF" d="M2988.757,1596.319c226.704,0,490.698-18.452,656.001-50.547
			c603.662-115.337,1212.226-451.519,1631.836-893.218c714.082-758.252,996.279-1791.338,765.615-2807.251
			c-132.51-586.475-431.885-1106.699-883.398-1536.133c-426.982-402.441-910.391-652.734-1509.14-780.342
			c-144.775-30.674-366.855-46.016-588.936-46.016c-222.075,0-444.155,15.342-588.936,46.016
			c-419.609,90.801-782.783,242.939-1138.603,476.055c-233.115,154.6-638.008,561.943-799.961,802.422
			C69.446-2498.241-97.419-1685.995,54.719-876.22C297.659,407.164,1360.188,1400.992,2680.383,1580.123
			C2759.348,1591.163,2868.816,1596.319,2988.757,1596.319 M3052.644-4275.692c1099.936,0,2181.518,641.992,2631.294,1797.08
			c139.873,353.359,184.043,615.928,184.043,1042.905c-2.451,299.375-12.266,397.534-66.25,613.472
			c-110.43,453.975-277.295,787.7-566.855,1148.423c-449.053,554.58-1138.604,927.568-1867.402,1011.001
			c-105.596,11.592-210.293,17.397-314.126,17.397c-489.746,0-960.327-129.209-1415.864-390.386
			C1131.975,677.09,675.559,149.507,457.161-397.709C27.727-1460.244,265.754-2638.115,1073.088-3447.9
			C1632.532-4011.181,2346.286-4275.692,3052.644-4275.692 M2988.757,1696.319c-130.483,0-241.904-5.933-322.217-17.158
			c-334.57-45.396-658.506-142.227-962.397-287.744c-296.929-142.183-569.077-328.018-808.877-552.344
			C655.359,614.649,453.235,356.763,294.509,72.583C131.941-218.481,18.206-531.45-43.538-857.622
			c-78.208-416.27-75.303-833.51,8.604-1240.288c83.989-407.168,247.173-794.199,485.01-1150.322
			c169.624-251.865,587.305-670.693,827.851-830.224l0.234-0.156l0.234-0.146c367.71-240.908,740.2-396.66,1172.251-490.146
			c144.961-30.713,367.173-48.281,610.088-48.281c242.92,0,465.127,17.568,609.658,48.184
			c311.006,66.289,587.109,163.135,844.199,296.123c257.197,133.027,490.361,299.619,712.813,509.277
			c232.061,220.723,426.904,466.924,579.414,732.09c152.783,265.625,264.795,553.213,332.93,854.775
			c58.818,259.053,85.928,523.096,80.547,784.692c-5.322,258.55-42.383,515.571-110.137,763.921
			c-67.744,248.291-166.348,488.521-293.066,714.014c-128.164,228.052-285.518,441.772-467.695,635.225
			c-436.738,459.727-1066.855,804.609-1685.869,922.881C3499.944,1675.762,3234.963,1696.319,2988.757,1696.319L2988.757,1696.319z
			 M3052.644-4175.692c-719.521,0-1397.344,283.496-1908.603,798.261C361.301-2592.314,133.679-1464.96,549.875-435.18
			C758.948,88.663,1205.178,603.663,1686.868,877.247c436.836,250.449,896.47,377.339,1366.479,377.339
			c99.624,0,201.646-5.649,303.218-16.802c697.91-79.897,1371.201-444.224,1800.595-974.526
			c282.832-352.344,441.504-673.779,547.402-1109.131l0.078-0.308l0.078-0.308c51.357-205.425,60.83-293.691,63.262-589.624
			c-0.029-422.851-43.057-667.256-177.021-1005.693l-0.107-0.264l-0.098-0.254
			C5180.734-3495.302,4184.465-4175.692,3052.644-4175.692L3052.644-4175.692z"/>
	</g>
	<g>
		<path d="M1343.01-2258.681c-284.058,0-392.881,42.637-554.463,217.266c-120.723,125.84-167.109,218.916-206.187,414.316
			c-78.311,391.518,137.505,811.103,481.089,935.317c71.445,24.795,182.363,39.468,297.314,39.468
			c85.771,0,163.477-8.364,218.794-23.545c345.64-97.627,578.525-473.667,542.056-874.805
			c-28.745-292.695-156.606-498.799-390.928-630.449C1602.131-2250.741,1562.346-2258.681,1343.01-2258.681z M1341.306-1017.001
			c-91.831,0-178.013-24.268-236.44-66.582c-151.172-105.83-203.569-426.26-102.588-623.838
			c67.188-133.486,189.458-209.893,335.601-209.893c160.112,0,345.327,99.385,398.188,321.416
			c46.328,191.919-18.55,415.849-147.661,509.956C1526.086-1042.333,1435.74-1017.001,1341.306-1017.001z"/>
		<path fill="#FFFFFF" d="M1360.764-702.314c77.319,0,152.007-7.065,205.557-21.763c321.455-90.796,539.853-444.155,505.498-822.056
			c-26.992-274.834-147.236-468.691-365.625-591.386c-117.793-63.799-149.688-71.162-363.184-71.162
			c-267.471,0-365.625,36.807-517.764,201.221c-115.332,120.234-157.051,206.123-193.857,390.166
			c-73.623,368.086,130.049,763.159,449.062,878.491C1149.241-714.936,1257.366-702.314,1360.764-702.314 M1337.878-1967.314
			c194.541,0,391.436,127.158,446.831,359.834c51.533,213.491-22.08,456.426-166.855,561.943
			c-74.497,52.148-175.996,78.535-276.548,78.535c-98.174-0.005-195.454-25.166-265.767-76.084
			c-171.768-120.239-230.664-466.23-117.783-687.09C1038.996-1891.581,1187.732-1967.314,1337.878-1967.314 M1360.764-602.314
			c-120.229,0-237.271-15.708-313.091-42.017l-0.615-0.21l-0.605-0.22c-365.898-132.28-596.084-577.358-513.12-992.143
			c40.728-203.662,91.958-306.396,219.106-439.111c171.187-184.805,292.798-232.666,590.571-232.666
			c225.898,0,275.806,10.107,410.811,83.232l0.679,0.371l0.674,0.371c246.147,138.291,386.162,363.311,416.167,668.799l0.034,0.361
			l0.034,0.361c38.608,424.707-209.834,823.379-577.905,927.344l-0.356,0.098l-0.356,0.098
			C1516.521-606.708,1424.514-602.314,1360.764-602.314L1360.764-602.314z M1337.878-1867.314
			c-126.563,0-232.554,66.377-290.796,182.1l-0.142,0.273l-0.142,0.273c-89.6,175.312-44.546,468.218,86.089,559.658l0.654,0.459
			l0.649,0.474c50.088,36.27,125.576,57.07,207.119,57.075c0.005,0,0.01,0,0.015,0c83.989,0,163.511-21.821,218.379-59.897
			c111.577-82.061,168.901-286.831,127.798-457.114C1640.886-1779.804,1478.332-1867.314,1337.878-1867.314L1337.878-1867.314z"/>
	</g>
	<g>
		<path d="M4638.264-2272.206c-208.877,0-407.744,82.568-518.984,215.479c-186.309,220.42-254.297,525.595-181.729,816.157
			c63.652,254.863,225.664,451.099,444.482,538.394c82.373,33.398,156.045,46.455,262.52,46.455c19.023,0,39.326-0.396,62.07-1.211
			c331.396-10.439,541.025-156.24,622.832-433.34l54.326-174.58h-212.705c-87.871,0-197.227,0-197.227,84.351
			c0,42.31-95.732,135.752-204.834,162.471c-37.871,8.945-75.391,13.53-111.113,13.53c-222.451,0-367.412-177.1-369.307-451.182
			c0-294.092,150.098-469.883,401.523-469.883c96.895,0,237.754,78.887,274.043,153.467c7.227,15,20.527,42.637,26.523,60.127
			c-30.244,5.41-98.701,5.41-150.879,5.41h-258.584v345.395h790.508L5355.1-2234.14h-171.748
			c-103.76,0-155.918,3.594-174.629,81.182C4918.361-2229.99,4787.873-2272.206,4638.264-2272.206z"/>
		<path fill="#FFFFFF" d="M4644.553-705.722c18.779,0,38.789-0.41,60.283-1.177c311.65-9.819,500.596-139.873,576.67-397.534
			l34.355-110.42h-144.785c-110.42,0-147.227,9.814-147.227,34.351c0,76.069-122.695,181.587-242.939,211.035
			c-42.705,10.088-83.799,14.966-123.008,14.966c-246.895,0-417.178-193.774-419.307-500.835
			c0-321.46,169.326-520.229,451.523-520.229c117.783,0,274.834,90.801,319.004,181.592
			c63.799,132.51,56.436,137.412-169.316,137.412h-208.584v122.695v122.7h343.545h345.996l-7.363-385.259l-7.363-387.715h-122.686
			c-115.342,0-122.695,4.902-130.059,66.25l-7.363,68.711l-53.984-51.533c-85.469-82.295-216.758-121.494-353.682-121.494
			c-181.514,0-372.939,68.887-480.645,197.568c-348.447,412.256-218.389,1091.982,242.939,1276.02
			C4477.15-717.563,4543.254-705.722,4644.553-705.722 M4644.553-605.722c-113.359,0-192.256-14.053-281.27-50.103
			c-233.828-93.364-406.67-302.065-474.238-572.632c-36.055-144.355-39.102-297.939-8.799-444.15
			c32.109-154.951,101.611-299.004,200.996-416.582c120.186-143.594,333.74-233.018,557.021-233.018
			c135.42,0,257.041,32.637,351.484,93.193c10.459-12.783,24.131-24.502,42.1-33.809c39.18-20.293,83.096-21.318,151.504-21.318
			h122.686h98.115l1.865,98.105l7.363,387.715l7.363,385.244l1.875,98.223h29.082l-40.352,129.707l-34.15,109.741
			c-88.75,299.648-313.906,457.261-669.219,468.457C4685.07-606.127,4664.182-605.722,4644.553-605.722L4644.553-605.722z
			 M4338.596-1455.698c1.816,247.485,124.15,401.196,319.307,401.196c31.719,0,65.225-4.102,99.58-12.183
			c87.891-21.67,158.34-91.401,166.406-116.812c1.191-46.533,30.254-101.763,108.828-120.625
			c12.588-3.018,26.797-5.347,43.535-7.046h-101.484h-343.545h-100v-100v-122.7v-122.695v-100h100h208.584
			c21.514,0,49.609,0,75.635-0.527c-31.523-51.406-145.342-118.477-225.322-118.477
			C4466.818-1875.566,4338.703-1722.548,4338.596-1455.698L4338.596-1455.698z"/>
	</g>
	<g>
		<path d="M3641.877-2241.415l-176.475,9.99l-11.348,757.187l-276.621-757.851l-315.322-18.916l-282.983,776.289l-3.35-226.748
			l-5.391-544.951H2225.49v1572.339h207.051c176.904,0,207.158-35.313,217.1-46.919l1.431-1.67l1.279-1.787
			c21.182-29.639,135.645-336.914,210.127-547.334c65.078-183.848,118.677-328.437,152.656-416.338
			c36.089,87.471,92.573,234.043,160.474,423.852l208.271,577.925h425.713l7.861-780.752l5.273-784.756L3641.877-2241.415z"/>
		<path fill="#FFFFFF" d="M2432.541-724.077c95.703,0,164.414-12.271,179.131-29.448c12.275-17.178,105.518-257.656,203.672-534.946
			s186.494-510.415,196.309-520.229c0.181-0.303,0.42-0.449,0.708-0.449c11.406,0,105.034,233.691,210.327,528.037l196.318,544.766
			h171.768h169.316l7.363-731.26l4.912-731.26l-127.607,7.363l-130.059,7.363l-7.354,490.781l-7.363,490.771l-179.141-490.771
			l-179.131-490.781l-122.695-7.363l-122.695-7.363l-181.582,498.145l-181.592,498.135l-7.363-498.135l-4.902-495.693h-122.695
			H2275.49v736.172v736.167H2432.541 M2432.541-624.077H2275.49h-100v-100v-736.167v-736.172v-100h100h122.695h122.695h99.014
			l0.981,99.014l4.448,449.98l177.041-485.693l25.532-70.039l74.414,4.463l122.695,7.363l122.69,7.363l65.469,3.936l22.48,61.602
			l172.471,472.539l6.592-439.746l1.396-93.086l92.939-5.264l130.059-7.363l127.5-7.354l106.474-6.143l-0.713,106.65l-4.912,731.26
			l-7.373,731.592l-0.996,98.994h-98.994h-169.316h-171.768h-70.254l-23.828-66.099l-196.318-544.766
			c-42.52-118.882-80.85-221.47-112.275-302.661c-29.795,80.176-66.152,180.176-106.719,294.771
			c-45.454,128.408-93.369,258.892-134.922,367.407c-64.38,168.13-73.96,181.538-81.655,192.31l-2.559,3.579l-2.861,3.345
			C2671.106-669.199,2632.448-624.077,2432.541-624.077L2432.541-624.077z"/>
	</g>
</g>
</svg>
