<?xml version="1.0" encoding="utf-8"?>
<!-- Generator: Adobe Illustrator 16.0.0, SVG Export Plug-In . SVG Version: 6.00 Build 0)  -->
<!DOCTYPE svg PUBLIC "-//W3C//DTD SVG 1.1//EN" "http://www.w3.org/Graphics/SVG/1.1/DTD/svg11.dtd">
<svg version="1.1" id="レイヤー_1" xmlns="http://www.w3.org/2000/svg" xmlns:xlink="http://www.w3.org/1999/xlink" x="0px"
	 y="0px" width="612px" height="792px" viewBox="0 0 612 792" enable-background="new 0 0 612 792" xml:space="preserve">
<title>Asset 1</title>
<g id="Layer_2">
	<g id="Layer_1-2">
		<g>
			<path d="M0.001,535.464c-1.815,0-3.626-0.494-5.225-1.474c-2.967-1.817-4.775-5.047-4.775-8.526v-52.899
				c0-3.76,2.108-7.201,5.458-8.909l22.241-11.341c13.376-6.814,21.286-20.889,20.153-35.855c-0.517-6.765-0.779-13.65-0.779-20.459
				c-0.005-57.127,17.729-111.761,51.286-157.995c25.368-34.951,59.071-63.54,97.467-82.675
				c37.152-18.516,78.781-28.302,120.388-28.302c56.962,0,111.512,17.74,157.754,51.304c2.815,2.043,4.366,5.403,4.096,8.872
				s-2.325,6.546-5.424,8.128l-6.291,3.21l-42.186,21.494c-1.428,0.727-2.984,1.09-4.54,1.09c-1.683,0-3.362-0.424-4.876-1.27
				c-29.951-16.728-63.916-25.593-98.221-25.638h-0.273c-111.224,0-201.831,90.49-201.977,201.717
				c0.002,4.016,0.125,8.053,0.367,12.087l342.75-174.581l73.689-37.544l86.373-44.067c1.431-0.73,2.989-1.092,4.545-1.092
				c1.814,0,3.624,0.493,5.223,1.472c2.968,1.817,4.777,5.047,4.777,8.528v52.873c0,3.76-2.109,7.202-5.459,8.91l-87.129,44.406
				l-42.156,21.467L112.124,479.533l-20.897,10.643l-21.198,10.819L4.541,534.373C3.112,535.102,1.554,535.464,0.001,535.464z"/>
			<path fill="#FFFFFF" d="M306.213,137.028c52.726,0.001,105.945,16.056,151.88,49.396l-6.291,3.211l-42.18,21.491
				c-31.511-17.599-66.992-26.86-103.084-26.908c-0.1,0-0.186,0-0.285,0c-116.938,0-211.823,94.729-211.978,211.705
				c0.004,9.255,0.609,18.501,1.813,27.679l355.843-181.249l73.69-37.544l86.378-44.069v52.873l-87.129,44.406l-42.153,21.465
				l-375.133,191.14l-20.896,10.642l-21.206,10.823L0,525.464v-52.899l22.241-11.341c16.928-8.625,27.016-26.575,25.582-45.52
				c-0.5-6.542-0.751-13.11-0.751-19.704c-0.005-54.647,17.279-107.895,49.379-152.121
				C147.11,174.084,226.098,137.025,306.213,137.028 M306.214,117.028L306.214,117.028c-43.146-0.001-86.318,10.148-124.849,29.351
				c-19.66,9.799-38.136,21.932-54.916,36.062c-17.268,14.541-32.806,31.26-46.184,49.691
				c-17.208,23.709-30.521,49.86-39.565,77.726c-9.045,27.865-13.63,56.848-13.627,86.145c0,7.059,0.272,14.201,0.809,21.227
				c0.826,10.917-4.951,21.197-14.72,26.175l-22.247,11.344C-15.783,458.162-20,465.046-20,472.564v52.899
				c0,6.959,3.617,13.418,9.551,17.054c3.197,1.959,6.819,2.946,10.45,2.946c3.108,0,6.222-0.724,9.081-2.182l65.482-33.376
				l21.216-10.827l20.88-10.634l375.137-191.142l42.148-21.463l87.136-44.409c6.7-3.415,10.918-10.299,10.918-17.819v-52.873
				c0-6.96-3.619-13.42-9.555-17.056c-3.196-1.958-6.817-2.944-10.446-2.944c-3.11,0-6.227,0.725-9.088,2.185l-86.378,44.069
				l-73.681,37.54L114.323,391.869c2.303-103.823,87.568-187.651,191.93-187.651l0.226,0c32.64,0.042,64.922,8.469,93.391,24.369
				c3.026,1.69,6.388,2.539,9.752,2.539c3.111,0,6.224-0.725,9.079-2.18l42.18-21.491l6.304-3.217
				c6.197-3.163,10.306-9.32,10.848-16.256s-2.561-13.657-8.191-17.744C421.883,135.43,365.301,117.03,306.214,117.028
				L306.214,117.028z"/>
		</g>
		<g>
			<path d="M305.786,664.861c-56.979-0.004-111.539-17.751-157.781-51.323c-2.816-2.044-4.367-5.405-4.094-8.874
				c0.272-3.47,2.328-6.548,5.429-8.128l45.66-23.27l2.516-1.333c1.465-0.775,3.074-1.163,4.681-1.163
				c1.687,0,3.373,0.427,4.891,1.277c30.071,16.86,64.186,25.783,98.658,25.805h0.126c111.305-0.008,201.914-90.562,201.982-201.859
				c-0.001-4.078-0.126-8.176-0.371-12.27L164.375,558.558L4.54,639.99c-1.429,0.729-2.986,1.09-4.539,1.09
				c-1.816,0-3.627-0.494-5.226-1.474C-8.191,637.788-10,634.56-10,631.08v-52.848c0-3.761,2.109-7.203,5.46-8.91l86.74-44.198
				l42.147-21.514l483.116-245.985c1.429-0.728,2.984-1.089,4.537-1.089c1.815,0,3.627,0.494,5.227,1.474
				c2.966,1.818,4.773,5.047,4.773,8.526v52.717c0,3.761-2.11,7.204-5.462,8.911l-22.269,11.341
				c-13.351,6.818-21.253,20.895-20.122,35.854c0.518,6.914,0.779,13.855,0.779,20.64c-0.019,57.102-17.76,111.705-51.306,157.911
				c-25.37,34.945-59.071,63.527-97.461,82.658c-37.142,18.508-78.763,28.292-120.356,28.292
				C305.797,664.861,305.794,664.861,305.786,664.861z"/>
			<path fill="#FFFFFF" d="M612,266.537v52.717l-22.269,11.341c-16.912,8.638-26.987,26.583-25.556,45.519
				c0.492,6.577,0.751,13.231,0.751,19.886c-0.018,54.62-17.308,107.836-49.397,152.036
				c-50.662,69.782-129.636,106.825-209.743,106.825c-52.734,0-105.969-16.064-151.907-49.415l45.727-23.304l2.59-1.372
				c31.63,17.734,67.28,27.06,103.542,27.082c0.05,0,0.083,0,0.134,0c117.007,0,211.909-94.827,211.981-211.853
				c-0.003-9.316-0.608-18.623-1.813-27.86L159.835,549.647l-73.69,37.544L0,631.08v-52.848l86.74-44.198l42.153-21.517L612,266.537
				 M611.999,246.537c-3.105,0-6.216,0.722-9.074,2.177l-483.106,245.98l-42.171,21.526L-9.08,560.412
				c-6.701,3.415-10.92,10.3-10.92,17.82v52.848c0,6.958,3.617,13.417,9.55,17.053c3.197,1.959,6.82,2.947,10.451,2.947
				c3.107,0,6.219-0.723,9.078-2.18l86.145-43.889l73.69-37.544l328.898-167.593c-2.13,104-87.438,187.978-191.94,187.978h-0.134
				c-32.753-0.021-65.179-8.502-93.761-24.527c-3.036-1.701-6.408-2.555-9.782-2.555c-3.215,0-6.432,0.774-9.362,2.327l-2.445,1.295
				l-45.59,23.234c-6.201,3.16-10.313,9.316-10.857,16.255c-0.544,6.938,2.557,13.66,8.189,17.749
				c47.967,34.823,104.559,53.23,163.657,53.23c43.142,0,86.309-10.146,124.833-29.344c19.657-9.795,38.132-21.925,54.91-36.051
				c17.267-14.538,32.805-31.253,46.184-49.681c17.203-23.696,30.515-49.831,39.563-77.681c9.048-27.849,13.641-56.816,13.65-86.099
				c0-7.039-0.271-14.232-0.807-21.385c-0.827-10.945,4.946-21.229,14.708-26.215l22.248-11.331
				c6.703-3.414,10.924-10.3,10.924-17.822v-52.717c0-6.958-3.616-13.415-9.548-17.051
				C619.255,247.525,615.631,246.537,611.999,246.537L611.999,246.537z"/>
		</g>
	</g>
</g>
</svg>
