<?xml version="1.0" encoding="utf-8"?>
<!-- Generator: Adobe Illustrator 16.0.0, SVG Export Plug-In . SVG Version: 6.00 Build 0)  -->
<!DOCTYPE svg PUBLIC "-//W3C//DTD SVG 1.1//EN" "http://www.w3.org/Graphics/SVG/1.1/DTD/svg11.dtd">
<svg version="1.1" id="レイヤー_1" xmlns="http://www.w3.org/2000/svg" xmlns:xlink="http://www.w3.org/1999/xlink" x="0px"
	 y="0px" width="612px" height="792px" viewBox="0 0 612 792" enable-background="new 0 0 612 792" xml:space="preserve">
<title>Asset 1</title>
<g id="Layer_2">
	<g>
		<g id="Layer_1-2_7_">
			<path d="M525.621,204.808l-73.69,37.544L96.088,423.602c-1.203-9.178-1.809-18.424-1.813-27.679
				c0.154-117.075,95.188-211.858,212.263-211.704c36.092,0.047,71.573,9.309,103.084,26.908l42.18-21.491l6.291-3.211
				c-115.73-83.999-277.643-58.275-361.642,57.455C64.352,288.105,47.068,341.353,47.073,396c0,6.594,0.251,13.162,0.751,19.704
				c1.434,18.944-8.654,36.895-25.582,45.52L0,472.564v52.899l65.482-33.376l0,0l21.206-10.823l20.896-10.642l0,0l375.133-191.14
				l42.153-21.465l87.129-44.406v-52.873L525.621,204.808z"/>
			<path d="M612,266.537L128.894,512.518L86.74,534.034L0,578.232v52.848l86.145-43.889l73.69-37.544L516.041,368.14
				c1.204,9.238,1.81,18.544,1.813,27.86c-0.072,117.075-95.039,211.925-212.115,211.853c-36.262-0.022-71.912-9.348-103.542-27.082
				l-2.59,1.372l-45.727,23.304c115.721,84.013,277.637,58.31,361.649-57.41c32.09-44.2,49.38-97.416,49.397-152.036
				c0-6.654-0.259-13.309-0.751-19.886c-1.432-18.937,8.644-36.881,25.556-45.519L612,319.254V266.537z"/>
		</g>
	</g>
	<g>
		<g id="Layer_1-2_5_">
			<path fill="none" stroke="#FFFFFF" d="M525.621,204.808l-73.69,37.544L96.088,423.602c-1.203-9.178-1.809-18.424-1.813-27.679
				c0.154-117.075,95.188-211.858,212.263-211.704c36.092,0.047,71.573,9.309,103.084,26.908l42.18-21.491l6.291-3.211
				c-115.73-83.999-277.643-58.275-361.642,57.455C64.352,288.105,47.068,341.353,47.073,396c0,6.594,0.251,13.162,0.751,19.704
				c1.434,18.944-8.654,36.895-25.582,45.52L0,472.564v52.899l65.482-33.376l0,0l21.206-10.823l20.896-10.642l0,0l375.133-191.14
				l42.153-21.465l87.129-44.406v-52.873L525.621,204.808z"/>
			<path fill="none" stroke="#FFFFFF" d="M612,266.537L128.894,512.518L86.74,534.034L0,578.232v52.848l86.145-43.889l73.69-37.544
				L516.041,368.14c1.204,9.238,1.81,18.544,1.813,27.86c-0.072,117.075-95.039,211.925-212.115,211.853
				c-36.262-0.022-71.912-9.348-103.542-27.082l-2.59,1.372l-45.727,23.304c115.721,84.013,277.637,58.31,361.649-57.41
				c32.09-44.2,49.38-97.416,49.397-152.036c0-6.654-0.259-13.309-0.751-19.886c-1.432-18.937,8.644-36.881,25.556-45.519
				L612,319.254V266.537z"/>
		</g>
	</g>
</g>
</svg>
