<?xml version="1.0" encoding="utf-8"?>
<!-- Generator: Adobe Illustrator 16.0.0, SVG Export Plug-In . SVG Version: 6.00 Build 0)  -->
<!DOCTYPE svg PUBLIC "-//W3C//DTD SVG 1.1//EN" "http://www.w3.org/Graphics/SVG/1.1/DTD/svg11.dtd">
<svg version="1.1" id="レイヤー_1" xmlns="http://www.w3.org/2000/svg" xmlns:xlink="http://www.w3.org/1999/xlink" x="0px"
	 y="0px" width="612px" height="792px" viewBox="0 0 612 792" enable-background="new 0 0 612 792" xml:space="preserve">
<title>x</title>
<g id="Layer_2">
	<g id="Layer_1-2">
		<g>
			<path d="M306.018,384.332c-48.249,0-93.627-18.598-127.775-52.367L-5.911,149.701c-2.881-2.852-3.756-7.161-2.214-10.91
				c1.542-3.75,5.194-6.197,9.249-6.197h88.525c2.635,0,5.163,1.04,7.036,2.894L236.535,273.94
				c18.607,18.338,43.263,28.447,69.411,28.447c26.147,0,50.803-10.108,69.426-28.462l139.947-138.44
				c1.872-1.852,4.398-2.891,7.032-2.891h88.453c4.054,0,7.706,2.447,9.248,6.196c1.542,3.749,0.668,8.058-2.212,10.91
				L433.763,331.961C399.635,365.733,354.269,384.332,306.018,384.332z"/>
			<path fill="#FFFFFF" d="M610.805,142.594L426.727,324.855c-33.331,32.985-77.018,49.477-120.709,49.477
				s-87.389-16.492-120.744-49.477L1.123,142.594h88.525L229.5,281.047c21.199,20.894,48.822,31.34,76.446,31.34
				s55.247-10.447,76.446-31.34l139.96-138.453H610.805 M610.805,122.594h-88.453c-5.267,0-10.321,2.078-14.065,5.781
				l-139.96,138.453c-16.714,16.473-38.877,25.559-62.38,25.559s-45.667-9.086-62.407-25.585l-139.82-138.421
				c-3.745-3.708-8.801-5.787-14.071-5.787H1.123c-8.108,0-15.414,4.895-18.497,12.394c-3.083,7.499-1.335,16.117,4.428,21.821
				l184.15,182.261c18.217,18.015,39.451,31.96,63.118,41.455c22.837,9.162,46.959,13.807,71.695,13.807
				c24.736,0,48.855-4.646,71.688-13.808c23.663-9.496,44.89-23.442,63.09-41.453l184.082-182.265
				c5.761-5.704,7.508-14.322,4.424-21.82C626.218,127.488,618.912,122.594,610.805,122.594L610.805,122.594z"/>
		</g>
		<g>
			<path d="M523.547,659.406c-2.634,0-5.162-1.039-7.034-2.892L375.466,516.938c-18.608-18.341-43.265-28.449-69.413-28.449
				c-26.147,0-50.803,10.108-69.426,28.463L95.546,656.516c-1.872,1.852-4.399,2.891-7.033,2.891H0
				c-4.054,0-7.707-2.447-9.249-6.196c-1.542-3.75-0.667-8.059,2.214-10.911l185.273-183.385
				c34.126-33.771,79.492-52.369,127.743-52.369c48.249,0,93.627,18.598,127.776,52.366l185.277,183.388
				c2.881,2.853,3.755,7.161,2.214,10.911c-1.542,3.749-5.195,6.196-9.249,6.196H523.547z"/>
			<path fill="#FFFFFF" d="M305.982,416.545c43.692,0,87.39,16.492,120.745,49.477L612,649.406h-88.453L382.5,509.83
				c-21.199-20.894-48.823-31.341-76.447-31.341s-55.247,10.447-76.446,31.341L88.513,649.406H0l185.273-183.385
				C218.605,433.037,262.29,416.545,305.982,416.545 M305.982,396.545c-24.737,0-48.856,4.646-71.688,13.808
				c-23.663,9.495-44.889,23.442-63.088,41.453L-14.069,635.191c-5.763,5.704-7.511,14.322-4.428,21.821S-8.108,669.406,0,669.406
				h88.513c5.267,0,10.321-2.077,14.065-5.781l141.095-139.576c16.714-16.474,38.877-25.56,62.38-25.56s45.667,9.086,62.408,25.585
				l141.018,139.548c3.745,3.706,8.801,5.784,14.068,5.784H612c8.107,0,15.414-4.895,18.497-12.394
				c3.084-7.499,1.335-16.117-4.428-21.821L440.796,451.807c-18.218-18.015-39.452-31.96-63.119-41.455
				C354.839,401.19,330.718,396.545,305.982,396.545L305.982,396.545z"/>
		</g>
	</g>
</g>
</svg>
